<svg xmlns="http://www.w3.org/2000/svg" version="1.1" xmlns:xlink="http://www.w3.org/1999/xlink" xmlns:svgjs="http://svgjs.dev/svgjs" width="1000" height="1000" viewBox="0 0 1000 1000"><rect width="1000" height="1000" fill="#0080ff"></rect><g transform="matrix(0.7,0,0,0.7,149.57575757575756,282.1265587044535)"><svg viewBox="0 0 396 247" data-background-color="#0080ff" preserveAspectRatio="xMidYMid meet" height="623" width="1000" xmlns="http://www.w3.org/2000/svg" xmlns:xlink="http://www.w3.org/1999/xlink"><g id="tight-bounds" transform="matrix(1,0,0,1,0.2400000000000091,-0.09999999999999432)"><svg viewBox="0 0 395.52 247.2" height="247.2" width="395.52"><g><svg></svg></g><g><svg viewBox="0 0 395.52 247.2" height="247.2" width="395.52"><g transform="matrix(1,0,0,1,75.83999999999999,37.08)"><svg viewBox="0 0 243.84 173.04" height="173.04" width="243.84"><g><svg viewBox="0 0 243.84 173.04" height="173.04" width="243.84"><g><svg viewBox="0 0 243.84 173.04" height="173.04" width="243.84"><g><svg viewBox="0 0 243.84 173.04" height="173.04" width="243.84"><g id="textblocktransform"><svg viewBox="0 0 243.84 173.04" height="173.04" width="243.84" id="textblock"><g><svg viewBox="0 0 243.84 173.04" height="173.04" width="243.84"><g transform="matrix(1,0,0,1,0,0)"><svg width="243.84" viewBox="3.700000047683716 -35.5 50.79999923706055 36.04999923706055" height="173.04" data-palette-color="#ffffff"><path d="M10.6 0L3.7 0 3.7-35.5 19.4-35.5Q21.85-35.5 23.93-34.5 26-33.5 27.53-31.8 29.05-30.1 29.88-28 30.7-25.9 30.7-23.7L30.7-23.7Q30.7-21.45 29.93-19.38 29.15-17.3 27.7-15.75 26.25-14.2 24.3-13.35L24.3-13.35 32.4 0 24.8 0 17.5-11.9 10.6-11.9 10.6 0ZM10.6-29.45L10.6-17.95 19.25-17.95Q20.55-17.95 21.55-18.73 22.55-19.5 23.15-20.8 23.75-22.1 23.75-23.7L23.75-23.7Q23.75-25.4 23.05-26.68 22.35-27.95 21.28-28.7 20.2-29.45 18.95-29.45L18.95-29.45 10.6-29.45ZM33.6-1.65L35.15-7.25Q35.8-6.8 37.45-6.18 39.1-5.55 41.35-5.55L41.35-5.55Q43.3-5.55 44.55-6.23 45.8-6.9 46.47-8.25 47.15-9.6 47.37-11.75 47.6-13.9 47.6-16.9L47.6-16.9 47.6-35.5 54.5-35.5 54.5-17.45Q54.5-13.45 54.05-10.15 53.6-6.85 52.3-4.45 51-2.05 48.37-0.75 45.75 0.55 41.4 0.55L41.4 0.55Q39 0.55 37.1 0 35.2-0.55 33.6-1.65L33.6-1.65Z" opacity="1" transform="matrix(1,0,0,1,0,0)" fill="#ffffff" class="undefined-text-0" data-fill-palette-color="primary" id="text-0"></path></svg></g></svg></g></svg></g></svg></g></svg></g></svg></g></svg></g><g><path xmlns="http://www.w3.org/2000/svg" d="M0 247.2v-247.2h395.52v247.2zM379.915 231.595v-215.99h-364.31v215.99z" fill="#ffffff" fill-rule="nonzero" stroke="none" stroke-width="1" stroke-linecap="butt" stroke-linejoin="miter" stroke-miterlimit="10" stroke-dasharray="" stroke-dashoffset="0" font-family="none" font-weight="none" font-size="none" text-anchor="none" style="mix-blend-mode: normal" data-fill-palette-color="tertiary"></path></g></svg></g><defs></defs></svg><rect width="395.52" height="247.2" fill="none" stroke="none" visibility="hidden"></rect></g></svg></g></svg>